<svg width="22" height="24" viewBox="0 0 22 24" fill="none" xmlns="http://www.w3.org/2000/svg">
<path d="M9.6875 0.242578C10.3083 -0.0808594 11.025 -0.0808594 11.6458 0.242578L20.7542 4.97695C21.1083 5.15977 21.3333 5.5582 21.3333 5.99883C21.3333 6.43945 21.1083 6.83789 20.7542 7.0207L11.6458 11.7551C11.025 12.0785 10.3083 12.0785 9.6875 11.7551L0.579167 7.0207C0.225 6.8332 0 6.43477 0 5.99883C0 5.56289 0.225 5.15977 0.579167 4.97695L9.6875 0.242578ZM18.5375 9.82383L20.7542 10.977C21.1083 11.1598 21.3333 11.5582 21.3333 11.9988C21.3333 12.4395 21.1083 12.8379 20.7542 13.0207L11.6458 17.7551C11.025 18.0785 10.3083 18.0785 9.6875 17.7551L0.579167 13.0207C0.225 12.8332 0 12.4348 0 11.9988C0 11.5629 0.225 11.1598 0.579167 10.977L2.79583 9.82383L9.12917 13.1145C10.1042 13.6207 11.2292 13.6207 12.2042 13.1145L18.5375 9.82383ZM12.2042 19.1145L18.5375 15.8238L20.7542 16.977C21.1083 17.1598 21.3333 17.5582 21.3333 17.9988C21.3333 18.4395 21.1083 18.8379 20.7542 19.0207L11.6458 23.7551C11.025 24.0785 10.3083 24.0785 9.6875 23.7551L0.579167 19.0207C0.225 18.8332 0 18.4348 0 17.9988C0 17.5629 0.225 17.1598 0.579167 16.977L2.79583 15.8238L9.12917 19.1145C10.1042 19.6207 11.2292 19.6207 12.2042 19.1145Z" fill="#FFB703"/>
</svg>
